<svg height='100px' width='100px'  fill="#B3B3B3" xmlns="http://www.w3.org/2000/svg" xmlns:xlink="http://www.w3.org/1999/xlink" version="1.1" x="0px" y="0px" viewBox="0 0 100 100" enable-background="new 0 0 100 100" xml:space="preserve"><g><g><path fill="none" d="M55.639,69.022c-1.805,0.59-3.694,0.907-5.639,0.907c-1.935,0-3.823-0.328-5.634-0.933    c-1.248,8.012-9.051,11.52-16.02,14.633c-0.424,0.19-0.845,0.378-1.26,0.565l1.051,2.448c0.756,1.764,2.485,2.904,4.405,2.904    h34.918c1.92,0,3.649-1.14,4.405-2.904l1.05-2.449c-0.416-0.187-0.836-0.375-1.26-0.565C64.692,80.519,56.9,77.015,55.639,69.022z    "></path><path d="M72.966,80.695c-7.03-3.142-13.672-6.128-14.251-12.995c6.138-3.282,10.901-9.965,12.745-18.505    c2.941-0.481,5.144-3.626,5.144-7.552c0-4.271-2.607-7.617-5.934-7.617c-0.155,0-0.309,0.015-0.484,0.042    c-2.084-0.514-4.975-1.679-7.483-4.315c-1.619-1.703-2.842-3.807-3.537-6.086l-3.076,0.937c0.84,2.754,2.321,5.301,4.283,7.365    c3.189,3.352,6.879,4.737,9.412,5.308l0.313,0.071l0.572-0.106c1.448,0,2.718,2.056,2.718,4.401c0,2.344-1.264,4.39-2.823,4.379    l-1.733-0.296l-0.277,1.573C66.573,58.548,58.769,66.713,50,66.713c-8.348,0-15.783-7.295-18.213-17.789    c0.221-0.658,0.472-1.311,0.788-1.95c2.546-5.154,6.37-8.255,10.068-11.253c4.785-3.88,9.305-7.545,9.845-14.84l-3.207-0.237    c-0.438,5.909-4.068,8.852-8.663,12.579c-3.782,3.068-8.069,6.543-10.926,12.327c-3.888,7.869-1.302,16.939,0.085,21.812    c0.061,0.215,0.126,0.438,0.188,0.664c-4.343-4.105-13.02-16.758-10.658-31.308c2.25-13.865,14.705-28.502,29.765-28.502    c0.15,0,0.304,0.002,0.454,0.005c7.999,0.156,15.612,4.513,21.438,12.269c6.887,9.169,9.677,21.262,7.109,30.808    c-2.319,8.621-8.619,14.36-13.497,17.658l1.801,2.663c5.331-3.602,12.226-9.908,14.802-19.486    c2.816-10.466-0.184-23.644-7.643-33.575C67.103,9.994,58.599,5.181,49.589,5.005c-16.9-0.317-30.968,15.864-33.457,31.198    c-2.658,16.375,7.588,30.9,12.67,35.011c1.153,0.933,2.076,1.38,2.885,1.38c0.266,0,0.521-0.048,0.767-0.144    c1.905-0.743,1.313-2.822,0.415-5.97c-0.77-2.702-1.832-6.436-2.002-10.394c2.427,5.174,6.093,9.224,10.419,11.571    c-0.554,6.898-7.208,9.891-14.253,13.039C19.908,83.878,12.54,87.171,12.54,95h3.216c0-4.509,3.601-7.084,8.414-9.443l1.011,2.355    c1.264,2.946,4.153,4.851,7.36,4.851h34.918c3.207,0,6.096-1.905,7.36-4.851l1.01-2.355c4.814,2.36,8.414,4.934,8.414,9.443h3.216    C87.46,87.171,80.092,83.878,72.966,80.695z M71.864,86.643c-0.756,1.764-2.485,2.904-4.405,2.904H32.541    c-1.92,0-3.649-1.14-4.405-2.904l-1.051-2.448c0.416-0.187,0.836-0.375,1.26-0.565c6.969-3.114,14.772-6.622,16.02-14.633    c1.811,0.605,3.7,0.933,5.634,0.933c1.945,0,3.834-0.317,5.639-0.907c1.261,7.993,9.054,11.498,16.015,14.608    c0.424,0.19,0.844,0.377,1.26,0.565L71.864,86.643z"></path></g></g></svg>