<svg xmlns="http://www.w3.org/2000/svg" width="26.298" height="25" viewBox="0 0 26.298 25">
  <path id="noun_Heart_584548" d="M31.95,12.878a7.844,7.844,0,0,0-10.826-.407A7.729,7.729,0,0,0,15.93,10.5h0A7.834,7.834,0,0,0,10.3,12.878a8.3,8.3,0,0,0,0,11.514L21.124,35.5,31.95,24.424A8.334,8.334,0,0,0,31.95,12.878Zm-.907,10.638L21.124,33.685,11.206,23.516a7.029,7.029,0,0,1,0-9.762,6.575,6.575,0,0,1,9.449,0l.438.469.438-.469a6.575,6.575,0,0,1,9.449,0A6.97,6.97,0,0,1,31.043,23.516Z" transform="translate(-7.975 -10.5)" fill="#7a68f2"/>
</svg>
