<svg height='100px' width='100px'  fill="#FFFFFF" xmlns="http://www.w3.org/2000/svg" xmlns:xlink="http://www.w3.org/1999/xlink" viewBox="0 0 24 24" version="1.1" x="0px" y="0px"><title>icons / search</title><desc>Created with Sketch.</desc><g stroke="none" stroke-width="1" fill="none" fill-rule="evenodd"><path d="M11,3 C15.418278,3 19,6.581722 19,11 C19,12.8454533 18.3751268,14.5449595 17.3254212,15.8984781 L20.7057314,19.2531372 C21.0978156,19.6420954 21.1003498,20.2752553 20.7113916,20.6673395 C20.3523533,21.0292633 19.7852378,21.0592629 19.3917289,20.7558106 L19.2971894,20.6729997 L15.9115691,17.315247 C14.5559253,18.3710879 12.8514078,19 11,19 C6.581722,19 3,15.418278 3,11 C3,6.581722 6.581722,3 11,3 Z M11,5 C7.6862915,5 5,7.6862915 5,11 C5,14.3137085 7.6862915,17 11,17 C14.3137085,17 17,14.3137085 17,11 C17,7.6862915 14.3137085,5 11,5 Z" fill="#FFFFFF" fill-rule="nonzero"></path></g></svg>